<svg width="90" height="90" viewBox="0 0 90 90" fill="none" xmlns="http://www.w3.org/2000/svg">
<rect width="90" height="90" fill="#4DB192"/>
<rect width="90" height="90" rx="45" fill="white"/>
<path fill-rule="evenodd" clip-rule="evenodd" d="M44.9442 0C69.8758 0 90 20.1242 90 44.9442C90 69.8758 69.8758 90 44.9442 90C20.1242 90 0 69.8758 0 44.9442C0 20.1242 20.1242 0 44.9442 0V0ZM62.1616 41.2545C63.056 41.5901 64.1742 41.4784 65.0686 41.1429C66.0745 41.5901 67.4161 41.5901 68.3105 41.0312C71.7763 42.2612 75.801 39.6897 71.4408 38.9071C71.9996 37.6771 70.0993 36.5595 68.3105 37.0067C67.5277 35.1064 63.2792 35.6652 63.5031 37.6779C62.2732 37.5662 61.1555 37.9018 60.9316 38.9078C56.0126 38.7961 57.8013 42.3736 62.1615 41.2553L62.1616 41.2545ZM9.61653 61.7135C28.623 52.7698 33.2055 42.9319 34.5481 42.8203C35.778 42.8203 37.1196 47.0689 39.9143 46.6216C42.7089 46.8456 48.0759 36.0008 50.0878 35.8886C53.442 35.8886 61.0441 52.435 80.3848 61.7147H9.61619L9.61653 61.7135ZM16.5481 59.5893L24.2625 59.3654C28.511 58.6943 33.4301 54.4464 35.4427 51.2038L36.2254 52.8809C35.7782 54.3341 35.4427 55.7878 35.1071 57.241C37.4547 56.0111 38.9084 52.5452 39.6911 52.5452C39.9151 52.5452 40.6971 57.9113 44.387 56.6815C43.6042 54.1101 46.9584 54.11 47.4057 51.9857C46.5113 50.7558 46.8469 50.0854 48.7472 48.7438C50.8714 47.6255 51.0948 50.4209 51.5419 54.781C53.8894 45.0546 53.4422 53.6627 57.0203 56.3465C57.0203 56.3465 57.4674 57.5764 57.4674 59.4768C57.6914 57.7997 58.3618 55.4521 58.809 55.1166C59.815 55.8994 59.2562 56.6821 61.1566 57.017C61.9393 55.8987 61.9393 57.9113 63.0569 56.3458C63.3924 57.4641 62.9452 58.3584 64.8456 59.4762H71.4417C65.4044 57.7991 63.5041 53.9978 62.9453 53.886L61.045 55.3392L58.809 51.985C58.1379 54.7796 56.573 49.5251 56.1259 49.4135C55.7904 49.3019 56.1259 51.6495 56.4615 53.5498L54.4489 47.1769C50.8715 49.4128 51.8774 43.4879 49.5299 41.4751C44.7225 45.6114 48.0767 58.9157 34.8839 46.2825C30.0765 54.779 23.0333 57.91 16.5488 59.5864L16.5481 59.5893ZM22.8086 35.2174C23.5913 35.553 24.5973 35.4413 25.3801 35.1058C26.2744 35.553 27.5042 35.4413 28.287 34.9942C31.4173 36.1124 34.9947 33.7643 31.0817 33.0939C31.5288 31.8639 29.8517 30.8579 28.287 31.3051C27.5043 29.5164 23.8152 30.0752 24.0384 31.864C22.9202 31.7523 21.9142 32.0879 21.6909 32.9822C17.3307 32.8706 19.0078 36.2242 22.8092 35.2182L22.8086 35.2174ZM51.205 32.0871C51.3166 32.7582 52.4349 32.7582 52.6582 32.0871C53.217 32.9815 54.6708 32.7582 54.8942 32.0871C56.5713 32.4227 57.5772 30.8572 55.9001 30.41C56.1241 29.5156 55.229 28.7329 54.3347 29.0685C53.9991 27.8386 52.2105 27.9502 51.9871 29.1801C51.2044 29.0685 50.5339 29.7389 50.5339 30.5216C48.298 30.5216 49.1924 32.7576 51.205 32.0871L51.205 32.0871Z" fill="#4DB192"/>
</svg>
